<svg width="41" height="41" viewBox="0 0 41 41" fill="none" xmlns="http://www.w3.org/2000/svg">
<g id="iconspace_Headset A_25px">
<path id="Path" fill-rule="evenodd" clip-rule="evenodd" d="M37.1314 26.0265C36.4823 25.2243 35.6643 24.5644 34.7314 24.1008V20.9524C34.7314 12.7786 28.5053 6.60084 20.3314 6.60084C12.1576 6.60084 5.93144 12.7786 5.93144 20.9524V24.1008C4.99861 24.5644 4.18058 25.2243 3.53144 26.0265V20.9524C3.53144 11.4531 10.8321 4.20084 20.3314 4.20084C29.8307 4.20084 37.1314 11.4531 37.1314 20.9524V26.0265ZM8.40238 24.9994C8.35593 25.2433 8.33162 25.495 8.33162 25.7524V35.3524C8.33162 35.6098 8.35593 35.8615 8.40238 36.1053C5.65413 35.7479 3.53162 33.398 3.53162 30.5524C3.53162 27.7067 5.65413 25.3568 8.40238 24.9994ZM32.3319 35.3524C32.3319 35.6098 32.3076 35.8615 32.2612 36.1053C35.0094 35.7479 37.1319 33.398 37.1319 30.5524C37.1319 27.7067 35.0094 25.3568 32.2612 24.9994C32.3076 25.2433 32.3319 25.495 32.3319 25.7524V35.3524Z" fill="#FF8345"/>
<path id="Path_2" fill-rule="evenodd" clip-rule="evenodd" d="M13.9321 23.3517H12.3321C11.0066 23.3517 9.93211 24.4262 9.93211 25.7517V35.3517C9.93211 36.6772 11.0066 37.7517 12.3321 37.7517H13.9321C15.2576 37.7517 16.3321 36.6772 16.3321 35.3517V25.7517C16.3321 24.4262 15.2576 23.3517 13.9321 23.3517ZM28.3318 23.3518H26.7318C25.4063 23.3518 24.3318 24.4264 24.3318 25.7518V35.3518C24.3318 36.6773 25.4063 37.7518 26.7318 37.7518H28.3318C29.6572 37.7518 30.7318 36.6773 30.7318 35.3518V25.7518C30.7318 24.4264 29.6572 23.3518 28.3318 23.3518Z" fill="#FF8345"/>
</g>
</svg>
