<svg width="40" height="41" viewBox="0 0 40 41" fill="none" xmlns="http://www.w3.org/2000/svg">
<g id="iconspace_Marketing_25px">
<path id="path" fill-rule="evenodd" clip-rule="evenodd" d="M17.253 9.58815L14.3994 9.89595V24.0211L17.3328 24.3415L28.8699 28.0391C29.1057 28.1144 29.3518 28.1527 29.5994 28.1527C30.9248 28.1527 31.9994 27.0782 31.9994 25.7527V8.15306C31.9994 7.90454 31.9608 7.65752 31.8849 7.42085C31.4806 6.15856 30.1294 5.46309 28.8672 5.86748L27.1994 6.40177V14.5524C27.1994 14.9942 26.8412 15.3524 26.3994 15.3524C25.9575 15.3524 25.5994 14.9942 25.5994 14.5524V6.91434L17.253 9.58815ZM12.7996 23.8467V10.0688L8.19906 10.565C5.3552 10.8718 3.19958 13.2724 3.19958 16.1327V17.7766C3.19958 20.6341 5.35105 23.0333 8.19168 23.3435L12.7996 23.8467Z" fill="#FF8345"/>
<path id="path_2" fill-rule="evenodd" clip-rule="evenodd" d="M35.9997 16.9518C35.9997 15.3036 35.0451 13.8711 33.5997 13.01V20.8937C35.0451 20.0326 35.9997 18.6 35.9997 16.9518ZM8.01839 24.9329C7.74694 24.9033 7.48038 24.8588 7.21948 24.8004L10.4323 33.0272C10.7919 33.948 11.6793 34.5541 12.6678 34.5541H13.5631C13.7057 34.5541 13.8481 34.5414 13.9884 34.5161C15.2929 34.2812 16.16 33.0333 15.9251 31.7288L14.8355 25.6774L8.01839 24.9329Z" fill="#FF8345"/>
</g>
</svg>
