<svg width="40" height="41" viewBox="0 0 40 41" fill="none" xmlns="http://www.w3.org/2000/svg">
<g id="iconspace_Camera 1_25px">
<path id="Path" fill-rule="evenodd" clip-rule="evenodd" d="M11.503 10.5522L12.8938 7.77145C13.0207 7.53702 13.2265 7.20377 13.4884 6.86388C13.826 6.42573 14.1676 6.09662 14.5515 5.90938C14.7572 5.80905 14.9726 5.75218 15.1974 5.75218H24.7974C25.0221 5.75218 25.2376 5.80905 25.4433 5.90938C25.8272 6.09662 26.1688 6.42573 26.5064 6.86388C26.7683 7.20377 26.9741 7.53702 27.1129 7.79441L28.4918 10.5522H31.1974C34.2902 10.5522 36.7974 13.0594 36.7974 16.1522V30.5522C36.7974 33.645 34.2902 36.1522 31.1974 36.1522H8.79739C5.70459 36.1522 3.19739 33.645 3.19739 30.5522V16.1522C3.19739 13.0594 5.70459 10.5522 8.79739 10.5522H11.503ZM9.59756 18.5525C10.4812 18.5525 11.1976 17.8361 11.1976 16.9525C11.1976 16.0688 10.4812 15.3525 9.59756 15.3525C8.71391 15.3525 7.99756 16.0688 7.99756 16.9525C7.99756 17.8361 8.71391 18.5525 9.59756 18.5525ZM27.1976 22.5525C27.1976 26.5289 23.9741 29.7525 19.9976 29.7525C16.0212 29.7525 12.7976 26.5289 12.7976 22.5525C12.7976 18.576 16.0212 15.3525 19.9976 15.3525C23.9741 15.3525 27.1976 18.576 27.1976 22.5525Z" fill="#FF8345"/>
<path id="Path_2" fill-rule="evenodd" clip-rule="evenodd" d="M19.9972 28.152C23.0899 28.152 25.5972 25.6448 25.5972 22.552C25.5972 19.4592 23.0899 16.952 19.9972 16.952C16.9044 16.952 14.3972 19.4592 14.3972 22.552C14.3972 25.6448 16.9044 28.152 19.9972 28.152Z" fill="#FF8345"/>
</g>
</svg>
